<svg height="511pt" viewBox="1 -47 511.99897 511" width="511pt" xmlns="http://www.w3.org/2000/svg"><path d="m480.28125.5h-448.5625c-17.519531 0-31.71875 14.199219-31.71875 31.714844v353.351562c0 17.515625 14.199219 31.714844 31.71875 31.714844h38.503906l185.777344-30.859375 185.777344 30.859375h38.503906c17.519531 0 31.71875-14.199219 31.71875-31.714844v-353.351562c0-17.515625-14.199219-31.714844-31.71875-31.714844zm0 0" fill="#6a647f"/><path d="m30.90625 385.566406v-353.351562c0-17.515625 14.199219-31.714844 31.714844-31.714844h-30.902344c-17.519531 0-31.71875 14.199219-31.71875 31.714844v353.351562c0 17.515625 14.199219 31.714844 31.71875 31.714844h30.902344c-17.515625 0-31.714844-14.199219-31.714844-31.714844zm0 0" fill="#4f4c5f"/><path d="m170.3125 101.730469c-4.269531 0-7.726562-3.457031-7.726562-7.726563v-15.507812c0-4.265625 3.457031-7.726563 7.726562-7.726563s7.726562 3.460938 7.726562 7.726563v15.507812c0 4.269532-3.457031 7.726563-7.726562 7.726563zm0 0" fill="#423e4f"/><path d="m341.6875 101.730469c-4.269531 0-7.726562-3.457031-7.726562-7.726563v-15.507812c0-4.265625 3.457031-7.726563 7.726562-7.726563s7.726562 3.460938 7.726562 7.726563v15.507812c0 4.269532-3.457031 7.726563-7.726562 7.726563zm0 0" fill="#423e4f"/><path d="m256 110.007812c-10.472656 0-20.300781-4.371093-26.964844-11.996093-2.808594-3.214844-2.480468-8.09375.730469-10.902344s8.09375-2.480469 10.902344.730469c3.730469 4.269531 9.320312 6.714844 15.332031 6.714844s11.601562-2.445313 15.332031-6.714844c2.808594-3.210938 7.6875-3.539063 10.902344-.730469 3.210937 2.808594 3.539063 7.6875.730469 10.902344-6.664063 7.625-16.492188 11.996093-26.964844 11.996093zm0 0" fill="#423e4f"/><path d="m176.382812 180.964844h-53.082031l-26.535156 118.160156 26.535156 118.15625h53.082031l26.539063-118.15625zm0 0" fill="#d2d1d7"/><path d="m282.539062 180.964844h-53.078124l-26.539063 118.160156 26.539063 118.15625h53.078124l26.539063-118.15625zm0 0" fill="#d2d1d7"/><path d="m388.699219 180.964844h-53.082031l-26.539063 118.160156 26.539063 118.15625h53.082031l26.535156-118.15625zm0 0" fill="#d2d1d7"/><path d="m85.542969 180.964844c-8.460938 0-15.320313 6.859375-15.320313 15.320312v220.996094h53.082032v-236.316406zm0 0" fill="#e8e8e8"/><path d="m176.382812 180.964844h53.078126v236.316406h-53.078126zm0 0" fill="#e8e8e8"/><path d="m282.539062 180.964844h53.078126v236.316406h-53.078126zm0 0" fill="#e8e8e8"/><path d="m426.457031 180.964844h-37.757812v236.316406h53.078125v-220.996094c0-8.460937-6.859375-15.320312-15.320313-15.320312zm0 0" fill="#e8e8e8"/><g fill="#4f4c5f"><path d="m105.984375 180.964844v131.15625c0 4.621094 3.75 8.367187 8.371094 8.367187h17.894531c4.621094 0 8.371094-3.746093 8.371094-8.367187v-131.15625zm0 0"/><path d="m159.066406 180.964844v131.15625c0 4.621094 3.746094 8.367187 8.367188 8.367187h17.894531c4.625 0 8.371094-3.746093 8.371094-8.367187v-131.15625zm0 0"/><path d="m265.222656 180.964844v131.15625c0 4.621094 3.746094 8.367187 8.367188 8.367187h17.898437c4.621094 0 8.367188-3.746093 8.367188-8.367187v-131.15625zm0 0"/><path d="m318.300781 180.964844v131.15625c0 4.621094 3.746094 8.367187 8.371094 8.367187h17.894531c4.621094 0 8.367188-3.746093 8.367188-8.367187v-131.15625zm0 0"/><path d="m371.378906 180.964844v131.15625c0 4.621094 3.75 8.367187 8.371094 8.367187h17.894531c4.621094 0 8.371094-3.746093 8.371094-8.367187v-131.15625zm0 0"/></g><path d="m116.707031 90.390625c0 19.265625-15.621093 34.882813-34.886719 34.882813-19.265624 0-34.882812-15.617188-34.882812-34.882813s15.617188-34.882813 34.882812-34.882813c19.265626 0 34.886719 15.617188 34.886719 34.882813zm0 0" fill="#ff9db0"/><path d="m102.425781 114.972656c-19.265625 0-34.886719-15.621094-34.886719-34.886718 0-9.445313 3.765626-18.011719 9.863282-24.292969-17.179688 2.171875-30.464844 16.828125-30.464844 34.597656 0 19.265625 15.617188 34.882813 34.882812 34.882813 9.820313 0 18.683594-4.0625 25.023438-10.589844-1.449219.183594-2.921875.289062-4.417969.289062zm0 0" fill="#fd5f7e"/><path d="m465.0625 90.390625c0 19.265625-15.617188 34.882813-34.882812 34.882813-19.265626 0-34.886719-15.617188-34.886719-34.882813s15.621093-34.882813 34.886719-34.882813c19.265624 0 34.882812 15.617188 34.882812 34.882813zm0 0" fill="#ff9db0"/><path d="m450.78125 114.972656c-19.265625 0-34.882812-15.621094-34.882812-34.886718 0-9.445313 3.761718-18.011719 9.863281-24.292969-17.179688 2.171875-30.46875 16.828125-30.46875 34.597656 0 19.265625 15.621093 34.882813 34.886719 34.882813 9.816406 0 18.683593-4.0625 25.019531-10.589844-1.445313.183594-2.917969.289062-4.417969.289062zm0 0" fill="#fd5f7e"/></svg>